/* XPM */
static char * minicomputer_xpm[] = {
"32 32 255 2",
"  	c None",
". 	c #9D9D9D",
"+ 	c #B6B6B6",
"@ 	c #DCEBFF",
"# 	c #BEDAFF",
"$ 	c #D3E6FF",
"% 	c #BCBCBC",
"& 	c #8D8D8D",
"* 	c #909090",
"= 	c #939393",
"- 	c #979797",
"; 	c #9A9A9A",
"> 	c #999999",
", 	c #9B9B9B",
"' 	c #9E9E9E",
") 	c #A5A5A5",
"! 	c #ADADAD",
"~ 	c #ACACAC",
"{ 	c #ABABAB",
"] 	c #AAAAAA",
"^ 	c #A9A9A9",
"/ 	c #C9C9CA",
"( 	c #D6E8FF",
"_ 	c #A0A0A0",
": 	c #9C9C9C",
"< 	c #B3B3B3",
"[ 	c #828282",
"} 	c #919191",
"| 	c #969696",
"1 	c #989898",
"2 	c #A6A6A6",
"3 	c #A8A8A8",
"4 	c #CBCBCB",
"5 	c #C2DCFF",
"6 	c #A4A4A4",
"7 	c #A1A1A1",
"8 	c #D4E6FF",
"9 	c #A2A2A3",
"0 	c #686868",
"a 	c #898989",
"b 	c #B2B2B2",
"c 	c #A3A3A3",
"d 	c #A7A7A7",
"e 	c #CDCDCD",
"f 	c #D2E5FF",
"g 	c #D4E7FF",
"h 	c #636363",
"i 	c #838383",
"j 	c #EAEAEA",
"k 	c #E3E3E3",
"l 	c #EBEBEB",
"m 	c #E9E9E9",
"n 	c #E1E1E1",
"o 	c #CECECE",
"p 	c #BDBDBD",
"q 	c #AFAFAF",
"r 	c #D1D1D1",
"s 	c #D0E4FF",
"t 	c #B5B5B5",
"u 	c #9D9D9E",
"v 	c #646464",
"w 	c #848484",
"x 	c #9F9F9F",
"y 	c #E4E4E4",
"z 	c #C3C3C3",
"A 	c #C5C5C5",
"B 	c #C6C6C6",
"C 	c #D8D8D8",
"D 	c #E6E6E6",
"E 	c #D7D7D7",
"F 	c #BABABA",
"G 	c #D3D3D3",
"H 	c #CDE2FF",
"I 	c #9E9F9F",
"J 	c #656565",
"K 	c #868686",
"L 	c #DFDFDF",
"M 	c #BFBFBF",
"N 	c #C0C0C0",
"O 	c #C2C2C2",
"P 	c #B0B0B0",
"Q 	c #B7B7B7",
"R 	c #E7E7E7",
"S 	c #D4D4D4",
"T 	c #CCE2FF",
"U 	c #A2A2A2",
"V 	c #D5E7FF",
"W 	c #858585",
"X 	c #D6D6D6",
"Y 	c #B9B9B9",
"Z 	c #CAE1FF",
"` 	c #BABBBB",
" .	c #777777",
"..	c #8A8A8A",
"+.	c #C9C9C9",
"@.	c #B1B1B1",
"#.	c #B4B4B4",
"$.	c #BBBBBB",
"%.	c #E0E0E0",
"&.	c #DBDBDB",
"*.	c #C7DFFF",
"=.	c #DDECFF",
"-.	c #C4DDFF",
";.	c #DEECFF",
">.	c #ECF4FE",
",.	c #E9EBEE",
"'.	c #AEAEAE",
").	c #D9D9D9",
"!.	c #D0D0D0",
"~.	c #EFF1F3",
"{.	c #C5DEFF",
"].	c #DDEBFF",
"^.	c #C1DCFF",
"/.	c #C9E1FF",
"(.	c #D9EAFF",
"_.	c #EDF4FC",
":.	c #959595",
"<.	c #8E8E8E",
"[.	c #8B8B8B",
"}.	c #888888",
"|.	c #F1F3F7",
"1.	c #E6F0FD",
"2.	c #C6DFFF",
"3.	c #DFEDFF",
"4.	c #E6F1FE",
"5.	c #F0F4F9",
"6.	c #E7E8E9",
"7.	c #585858",
"8.	c #373737",
"9.	c #424242",
"0.	c #7F7F7F",
"a.	c #6B6B6B",
"b.	c #C4C5C5",
"c.	c #EEEEEE",
"d.	c #D7E8FF",
"e.	c #BFDBFF",
"f.	c #E1EEFF",
"g.	c #F7F9FC",
"h.	c #C1C1C1",
"i.	c #737373",
"j.	c #505050",
"k.	c #2F2F2F",
"l.	c #141414",
"m.	c #0D0D0D",
"n.	c #282828",
"o.	c #D2D2D2",
"p.	c #EFF6FF",
"q.	c #E3EFFF",
"r.	c #DDDDDE",
"s.	c #EEF1F4",
"t.	c #EAF3FF",
"u.	c #C8DFFF",
"v.	c #D6E7FF",
"w.	c #E8F2FF",
"x.	c #F4F8FD",
"y.	c #EDEDEE",
"z.	c #B8B8B8",
"A.	c #BEBEBE",
"B.	c #C7C7C7",
"C.	c #6F6F6F",
"D.	c #949494",
"E.	c #C8C8C8",
"F.	c #E4F0FF",
"G.	c #CDE3FF",
"H.	c #CBE1FF",
"I.	c #E1E3E4",
"J.	c #B2B3B3",
"K.	c #CCCCCC",
"L.	c #E9E9EA",
"M.	c #F1F6FC",
"N.	c #C9E0FF",
"O.	c #CCCFD3",
"P.	c #313131",
"Q.	c #525252",
"R.	c #F0F5FB",
"S.	c #F1F6FD",
"T.	c #F2F3F5",
"U.	c #DCDCDC",
"V.	c #DADADA",
"W.	c #696969",
"X.	c #8C8C8C",
"Y.	c #E8ECF2",
"Z.	c #DADDE0",
"`.	c #5A5A5A",
" +	c #535454",
".+	c #E2EEFD",
"++	c #C6DEFF",
"@+	c #E9F2FF",
"#+	c #DBEAFF",
"$+	c #D8DBDE",
"%+	c #3C3C3C",
"&+	c #EBF0F7",
"*+	c #C0DBFF",
"=+	c #DFE2E5",
"-+	c #757575",
";+	c #616161",
">+	c #E2EFFF",
",+	c #D5D9DE",
"'+	c #464646",
")+	c #EEF4FC",
"!+	c #E0E3E6",
"~+	c #797979",
"{+	c #E0EDFF",
"]+	c #DADDE1",
"^+	c #EDF3FC",
"/+	c #BFDAFF",
"(+	c #DEE1E5",
"_+	c #7E7E7E",
":+	c #767676",
"<+	c #E4E6E9",
"[+	c #EDF4FD",
"}+	c #DEECFE",
"|+	c #E4E7EA",
"1+	c #EEF5FF",
"2+	c #DADCDF",
"3+	c #E3E6E9",
"4+	c #EBF4FF",
"5+	c #C9CACA",
"6+	c #878787",
"7+	c #E3E5E8",
"8+	c #E2EEFF",
"9+	c #F1F2F4",
"0+	c #DEE0E2",
"a+	c #D1E5FF",
"b+	c #F3F8FE",
"c+	c #EAEBEC",
"d+	c #D7E8FE",
"e+	c #D6D8DA",
"f+	c #E6F1FF",
"g+	c #F7F8F9",
"h+	c #EBECED",
"i+	c #EFF6FE",
"j+	c #D9E9FF",
"k+	c #CCCCCD",
"l+	c #8F8F8F",
"m+	c #E5F0FF",
"n+	c #F9F9FA",
"o+	c #F0F1F2",
"p+	c #EFF4FB",
"q+	c #F4F7FB",
"r+	c #DADADB",
"s+	c #F3F4F5",
"t+	c #C8E0FF",
"u+	c #F4F9FE",
"v+	c #ECECEC",
"w+	c #F0F0F0",
"x+	c #F0F6FE",
"y+	c #D7E9FF",
"z+	c #C3DDFF",
"A+	c #F6F6F7",
"B+	c #E5E5E5",
"C+	c #F5F8FB",
"D+	c #D2E6FF",
"E+	c #EDF5FE",
"F+	c #D8E9FF",
"      . + @ # # $ % & * = - - ; > , . ' ) ! ~ { ] ^ ^ / (       ",
"  ] _ : + @ # # $ < [ & } = | 1 - ; . ' 2 ~ { ] ^ 3 3 4 $ # 5   ",
"  6 7 . + @ # # 8 9 0 a } ~ b c : , : . ) ~ { ] ] ^ d e f # #   ",
"6 c _ : + @ # # g . h i | j k l m n o p q { ] ^ ^ 3 3 r s # # # ",
") c 7 . t @ # # g u v w x y z A B 4 C j D l k E F 3 3 G H # # # ",
") c _ . t @ # # g I J K ^ L M N O z B r P b Q A R ] d S T # # # ",
"6 U _ ' t @ # # V ' J W b X + Y Y p N B ] ] ~ q D 3 2 C Z # # # ",
"6 U _ : Q @ # # ( `  ...p +.P @.#.Q $.% c U ) @.%.d ) &.*.# # # ",
"6 c 7 . t =.# # -.;.>.,.R Q ) 3 ] '.< ~ 1 - , t ).F !.~.{.# # # ",
") U 7 x + ].# # ^./.(._.j :.<.; 7 6 { ' [.}.[.$.|.1.( 2.# # # # ",
"6 U 7 x t 3.g 4.5.6.S p ) i 7.8.9.J [.0.v a.b.c.d.e.# # # # # # ",
"6 6 b / D f.g.k h.] % z $.#.{ ; i.j.k.l.m.n.} o.~.p.q.T # # # # ",
"r.s.t.(.u.^.v.w.x.y.G z.'.< A.B.+.h.| C.i D.. 6 ! E.c.F.# # # # ",
"G.5 # # # # # # ^.H.=.I.| J.K.p t D., ~ + p h.$.L.M.f.N.# # # # ",
"# # # # # # # # # # 5 O.P.Q.R.S.T.m U.E y V.W.X.Y.5 # # # # # # ",
"# # # # # # # # # # 5 Z.`. +.+# ++8 F.@+#+$+%+' &+*+# # # # # # ",
"# # # # # # # # # # 5 =+-+;+>+# # # # # # ,+'+d )+e.# # # # # # ",
"# # # # # # # # # # 5 !+~+0 {+# # # # # # ]+7.@.^+/+# # # # # # ",
"# # # # # # # # # # 5 (+_+:+3.# # # # # e.<+[.z.[+/+# # # # # # ",
"# # # # # # # # # # 5 =+}.& }+# # # # # *+|+_ % 1+# # # # # # # ",
"# # # # # # # # # # -.2+}.> }+# # # # # ^.3+U N 4+# # # # # # # ",
"# # # # # # # # # G.[+5+6+' }+# # # # # 5 7+7 O t.# # # # # # # ",
"# # # # # # # 5 8+9+B.6 ' 2 }+# # # # # -.0+' A @+# # # # # # # ",
"# # # # # # a+b+k Q 6 q r c+d+# # # # # {.e+:.A f+# # # # # # # ",
"# # # # # g g+S $.o h+i+j+{.# # # # # 2.4+k+l+B m+# # # # # # # ",
"# # # # # {+n+o+p+;.N.e.# # # # # e.V q+r+% $.+.F.# # # # # # # ",
"# # # # # *+H.H.*+# # # # # # # -.f+s+S h.N K.R 3.# # # # # # # ",
"# # # # # # # # # # # # # # # t+u+v+r A C w+x+y+z+# # # # # # # ",
"# # # # # # # # # # # # # # # w.A+B+R C+F.Z # # # # # # # # # # ",
"  # # # # # # # # # # # # # # D+1+E+F+z+# # # # # # # # # # #   ",
"  5 # # # # # # # # # # # # # # # /+# # # # # # # # # # # # 5   ",
"      # # # # # # # # # # # # # # # # # # # # # # # # # #       "};
